<?xml version="1.0" encoding="iso-8859-1"?>
<!-- Generator: Adobe Illustrator 18.1.1, SVG Export Plug-In . SVG Version: 6.00 Build 0)  -->
<svg version="1.1" id="Capa_1" xmlns="http://www.w3.org/2000/svg" xmlns:xlink="http://www.w3.org/1999/xlink" x="0px" y="0px"
	 viewBox="0 0 282.759 282.759" width="20px" height="20px" xml:space="preserve">
<g>
	<path style="fill:#777;" d="M51.385,138.816C36.34,154.1,22.569,170.243,10.434,188.121c-2.497,3.671-2.627,10.073,0,13.723
		c17.824,24.797,35.653,49.588,53.477,74.379c6.119,8.507,17.443,8.92,23.486,0c15.365-22.692,33.907-42.098,53.977-60.412
		c20.065,18.313,38.612,37.725,53.977,60.412c6.043,8.92,17.367,8.507,23.486,0c17.824-24.797,35.653-49.588,53.477-74.379
		c2.627-3.655,2.497-10.057,0-13.723c-12.135-17.878-25.912-34.021-40.951-49.305c13.777-12.923,26.836-26.412,38.835-41.141
		c3.622-4.444,5.907-11.215,2.132-16.475c-17.829-24.797-35.658-49.588-53.488-74.379c-4.634-6.445-15.349-10.106-21.354-2.752
		c-16.932,20.745-36.028,39.042-56.109,56.55C121.298,43.11,102.202,24.813,85.27,4.069c-6.005-7.359-16.72-3.693-21.354,2.752
		C46.087,31.617,28.258,56.409,10.429,81.2c-3.775,5.26-1.49,12.031,2.132,16.475C24.554,112.398,37.608,125.893,51.385,138.816z
		 M76.649,35.479c16.981,18.993,35.588,36.192,55.114,52.737c6.021,5.102,13.212,5.102,19.227,0
		c19.526-16.54,38.133-33.744,55.114-52.737c12.423,17.28,24.846,34.56,37.274,51.84c-12.836,14.74-26.641,28.403-41.255,41.511
		c-3.894,3.492-4.873,7.636-4.047,11.438c0.299,2.676,1.512,5.374,4.047,7.794c15.322,14.637,29.344,29.92,41.75,46.977
		c-12.292,17.09-24.574,34.179-36.866,51.269c-16.578-21.348-35.528-40.342-56.011-58.334c-5.842-5.134-13.386-5.134-19.227,0
		c-20.484,17.998-39.433,36.986-56.011,58.334c-12.292-17.09-24.579-34.179-36.866-51.269c12.407-17.057,26.423-32.335,41.75-46.977
		c5.145-4.911,5.428-14.359,0-19.227c-14.609-13.108-28.419-26.766-41.255-41.511C51.798,70.039,64.226,52.754,76.649,35.479z"/>
</g>
<g>
</g>
<g>
</g>
<g>
</g>
<g>
</g>
<g>
</g>
<g>
</g>
<g>
</g>
<g>
</g>
<g>
</g>
<g>
</g>
<g>
</g>
<g>
</g>
<g>
</g>
<g>
</g>
<g>
</g>
</svg>
