<?xml version="1.0" encoding="iso-8859-1"?>
<!-- Generator: Adobe Illustrator 16.0.0, SVG Export Plug-In . SVG Version: 6.00 Build 0)  -->
<!DOCTYPE svg PUBLIC "-//W3C//DTD SVG 1.1//EN" "http://www.w3.org/Graphics/SVG/1.1/DTD/svg11.dtd">
<svg version="1.1" id="Capa_1" xmlns="http://www.w3.org/2000/svg" xmlns:xlink="http://www.w3.org/1999/xlink" x="0px" y="0px"
	 width="20px" height="20px" viewBox="0 0 322.938 322.938" style="enable-background:new 0 0 322.938 322.938;"
	 xml:space="preserve">
<g>
	<path d="M235.929,1.699C177.88,32.162,117.244,34.425,53.073,34.449c-8.08,0-12.808,5.128-14.303,11.178
		c-2.231,2.435-3.549,5.842-3.117,10.343c8.41,87.862,65.257,163.57,67.638,252.105c0.534,19.786,31.279,19.846,30.745,0
		c-1.201-44.556-15.928-85.496-31.436-126.257c70.644-1.724,146.178-15.21,178.916-84.848c10.604-7.986,6.335-27.676-9.127-27.676
		c-0.685,0-1.369,0-2.048,0c-2.738,0-5.902,0.91-8.545,2.528c-10.063,3.141-20.128,6.503-30.408,8.14
		c10.587-19.54,19.371-39.851,27.124-60.897C263.49,5.542,246.887-4.047,235.929,1.699z M235.652,109.725
		c-35.297,36.876-92.315,41.16-144.623,41.529c-10.355-28.021-19.455-56.391-23.445-86.142
		c51.233-0.496,100.027-4.044,147.34-20.899c-6.876,14.738-14.526,29.06-23.443,42.94c-5.025,7.818-0.462,20.885,9.188,22.584
		C213.002,111.896,224.417,111.463,235.652,109.725z" fill="#555"/>
</g>
<g>
</g>
<g>
</g>
<g>
</g>
<g>
</g>
<g>
</g>
<g>
</g>
<g>
</g>
<g>
</g>
<g>
</g>
<g>
</g>
<g>
</g>
<g>
</g>
<g>
</g>
<g>
</g>
<g>
</g>
</svg>
